<svg width="93" height="86" viewBox="0 0 93 86" fill="none" xmlns="http://www.w3.org/2000/svg">
<path d="M31.4678 68.1277C34.7114 72.6522 38.5122 77.9538 42.9591 84.266V84.264C43.3432 84.8008 43.8509 85.2385 44.4399 85.5405C45.0288 85.8424 45.6818 86 46.3445 86C47.0071 86 47.6601 85.8424 48.2491 85.5405C48.838 85.2385 49.3457 84.8008 49.7298 84.264C54.1744 77.9553 57.9736 72.6561 61.2162 68.1333C75.4247 48.3148 78.9465 43.4026 79.258 33.781L31.3833 68.0098L31.4678 68.1277Z" fill="url(#paint0_linear_1670_355)"/>
<path d="M69.5313 9.3446C71.697 11.4651 73.5345 13.8549 75.0106 16.4361L62.5334 25.3569C59.7341 19.1666 53.4771 14.8561 46.2073 14.8561C36.3264 14.8561 28.3164 22.8191 28.3164 32.6419C28.3164 37.8075 30.5315 42.4587 34.069 45.7081L22.9137 53.6837L15.3558 43.2367C13.884 39.6339 13.4073 36.4253 13.4073 32.2505C13.4735 23.632 16.9808 15.3925 23.1576 9.3446C29.3345 3.29669 37.675 -0.064307 46.3445 0.00093231C55.0139 -0.064307 63.3544 3.29669 69.5313 9.3446Z" fill="url(#paint1_linear_1670_355)"/>
<path d="M90.1609 24.1481C93.2194 21.9613 93.9157 17.7237 91.716 14.6831C89.5163 11.6425 85.2536 10.9503 82.1951 13.1371L22.5715 55.7661L12.36 41.6511C10.1603 38.6105 5.89768 37.9183 2.83912 40.1051C-0.219434 42.2919 -0.91568 46.5295 1.28402 49.5701L15.4784 69.1906C17.678 72.2312 21.9407 72.9233 24.9993 70.7366L90.1609 24.1481Z" fill="url(#paint2_linear_1670_355)"/>
<defs>
<linearGradient id="paint0_linear_1670_355" x1="46.5" y1="0" x2="46.5" y2="86" gradientUnits="userSpaceOnUse">
<stop stop-color="#F7CF01"/>
<stop offset="0.9999" stop-color="#40CEC9"/>
<stop offset="1" stop-color="#6C5CE7"/>
</linearGradient>
<linearGradient id="paint1_linear_1670_355" x1="46.5" y1="0" x2="46.5" y2="86" gradientUnits="userSpaceOnUse">
<stop stop-color="#F7CF01"/>
<stop offset="0.9999" stop-color="#40CEC9"/>
<stop offset="1" stop-color="#6C5CE7"/>
</linearGradient>
<linearGradient id="paint2_linear_1670_355" x1="46.5" y1="0" x2="46.5" y2="86" gradientUnits="userSpaceOnUse">
<stop stop-color="#F7CF01"/>
<stop offset="0.9999" stop-color="#40CEC9"/>
<stop offset="1" stop-color="#6C5CE7"/>
</linearGradient>
</defs>
</svg>
